<svg width="121" height="40" viewBox="0 0 121 40" fill="none" xmlns="http://www.w3.org/2000/svg">
<g clip-path="url(#clip0_24_1437)">
<path d="M16.7088 19.693C16.7088 15.059 20.54 11.3114 25.3304 11.3114C30.1543 11.3114 33.9866 15.0611 33.9866 19.693C33.9866 24.2926 30.1543 28.1089 25.3304 28.1089C20.54 28.1089 16.7088 24.2884 16.7088 19.693ZM29.8468 19.693C29.8468 17.3765 27.8281 15.3319 25.3304 15.3319C22.8673 15.3319 20.8486 17.3765 20.8486 19.693C20.8486 22.0438 22.8673 24.0884 25.3304 24.0884C27.8323 24.0884 29.8468 22.0438 29.8468 19.693ZM103.651 19.8294C103.651 14.7528 107.791 11.3114 111.555 11.3114C114.121 11.3114 115.592 12.0947 116.584 13.5945L116.978 11.6155H120.826V27.8016H116.978L116.481 26.1351C115.353 27.3621 113.949 28.1141 111.555 28.1141C107.86 28.1089 103.651 24.8717 103.651 19.8294ZM116.789 19.795C116.78 17.3445 114.753 15.3334 112.291 15.3334C109.824 15.3334 107.794 17.3553 107.794 19.8122V19.8294C107.794 22.0782 109.813 24.0884 112.277 24.0884C114.771 24.0884 116.789 22.0782 116.789 19.795ZM98.9223 13.4914V11.6166H94.7145V27.8016H98.9223V19.0805C98.9223 16.4568 100.223 15.0944 102.479 15.0944C102.628 15.0944 102.77 15.1048 102.909 15.1184L103.69 11.2114C101.496 11.2229 99.9066 11.9718 98.9223 13.4914ZM56.6384 13.4925V11.6176L52.4306 11.627L52.4661 27.81L56.6739 27.8006L56.6509 19.0805C56.6446 16.4578 57.9426 15.0923 60.1998 15.0871C60.3437 15.0875 60.4876 15.0956 60.6307 15.1111L61.4068 11.2C59.2103 11.2177 57.6184 11.9697 56.6384 13.4925ZM35.4446 21.5324V11.6176H39.6514V21.022C39.6514 23.1 40.8144 24.3269 42.8331 24.3269C45.0913 24.3269 46.3893 22.9635 46.3893 20.3398V11.6176H50.5981V27.8016H46.3924V25.9268C45.4009 27.46 43.7922 28.2099 41.5686 28.2099C37.8053 28.211 35.4446 25.4852 35.4446 21.5324ZM76.418 19.7117C76.4274 15.1798 79.6845 11.302 84.8503 11.3114C89.6407 11.3208 93.0201 15.1423 93.0086 19.644C93.0097 20.0891 92.9741 20.5335 92.904 20.9731L80.5191 20.9501C80.994 22.8927 82.5995 24.2926 85.0292 24.2978C86.4998 24.2978 88.075 23.7582 89.0351 22.5333L91.9052 24.8248C90.4294 26.9007 87.826 28.1224 85.0564 28.1172C80.1666 28.1006 76.4097 24.4478 76.418 19.7117ZM88.7726 18.0306C88.5362 16.3953 86.8282 15.1309 84.8095 15.1277C82.8589 15.1277 81.2837 16.2797 80.6645 18.016L88.7726 18.0306ZM61.4319 24.2738L65.1721 22.324C65.7903 23.6582 67.0266 24.4446 68.7785 24.4446C70.3924 24.4446 71.0105 23.9322 71.0105 23.2135C71.0105 20.6096 62.1504 22.1875 62.1504 16.2349C62.1504 12.9519 65.0351 11.2083 68.6059 11.2083C71.3191 11.2083 73.7226 12.4051 75.028 14.6278L71.3212 16.5807C70.7721 15.486 69.7418 14.8705 68.4365 14.8705C67.1667 14.8705 66.5475 15.3152 66.5475 16.0672C66.5475 18.5983 75.4077 16.9911 75.4077 23.0458C75.4077 26.1924 72.8326 28.1068 68.6771 28.1068C65.1397 28.1037 62.6671 26.9413 61.4319 24.2738ZM0 19.693C0 15.0257 3.83126 11.277 8.62163 11.277C11.5447 11.2566 14.2887 12.7078 15.9087 15.1309L12.3169 17.2057C11.9011 16.6145 11.3479 16.1322 10.7045 15.7999C10.061 15.4677 9.34643 15.2953 8.62163 15.2975C6.15846 15.2975 4.13981 17.3421 4.13981 19.693C4.13981 22.0438 6.15846 24.0884 8.62163 24.0884C9.38059 24.0929 10.1281 23.9038 10.7928 23.5392C11.4576 23.1745 12.0176 22.6465 12.4194 22.0053L15.9756 24.1176C14.3746 26.6127 11.5929 28.1205 8.61954 28.1047C3.83126 28.1089 0 24.2884 0 19.693Z" fill="#8C90AD"/>
</g>
<defs>
<clipPath id="clip0_24_1437">
<rect width="120.805" height="17.0819" fill="white" transform="translate(0 11.2)"/>
</clipPath>
</defs>
</svg>
