<svg width="60" height="20" viewBox="0 0 60 20" fill="none" xmlns="http://www.w3.org/2000/svg">
<g clip-path="url(#clip0_2558_757)">
<path d="M34.7574 3.28012L35.4431 0H15.3032L12 15.7705H28.8393L27.9121 20H44.0424L47.6 3.28012H34.7574Z" fill="#02262B"/>
<path d="M18.864 13.7571C18.4075 13.7571 17.9761 13.6825 17.5704 13.5325C17.1647 13.3832 16.8106 13.1624 16.5086 12.8708C16.2066 12.5792 15.9684 12.2207 15.7932 11.7946C15.6181 11.3685 15.5305 10.8793 15.5305 10.3264C15.5305 9.57073 15.6355 8.88201 15.846 8.26087C16.0566 7.63973 16.3496 7.10742 16.725 6.66329C17.1003 6.2198 17.5504 5.87609 18.0759 5.63278C18.6006 5.38948 19.1756 5.26782 19.7996 5.26782C20.2207 5.26782 20.6199 5.3412 20.9985 5.4886C21.3765 5.636 21.7075 5.8497 21.9914 6.13162C22.2754 6.4129 22.5014 6.7592 22.6688 7.16986C22.8362 7.58052 22.9199 8.05232 22.9199 8.58463C22.9199 8.66574 22.9173 8.761 22.9122 8.86978C22.907 8.9792 22.8993 9.09056 22.889 9.20449C22.8787 9.31841 22.8684 9.43041 22.8588 9.53919C22.8485 9.64797 22.8362 9.74066 22.8208 9.81661H16.9078C16.9027 9.88806 16.8988 9.95629 16.8962 10.0219C16.8937 10.0882 16.8924 10.1565 16.8924 10.2273C16.8924 10.6482 16.9535 11.0068 17.0752 11.3035C17.1969 11.6002 17.3553 11.8422 17.5511 12.0302C17.7462 12.2181 17.9658 12.3533 18.2091 12.437C18.4525 12.5207 18.6985 12.5625 18.9471 12.5625C19.4899 12.5625 19.9264 12.4685 20.2561 12.2812C20.5858 12.0939 20.8369 11.8403 21.0095 11.5204H22.4022C22.3159 11.8351 22.1736 12.1293 21.976 12.4029C21.7783 12.6764 21.5285 12.9139 21.2265 13.1141C20.9245 13.3143 20.5742 13.472 20.1763 13.5859C19.7783 13.6999 19.3405 13.7571 18.864 13.7571ZM21.5349 8.75907C21.54 8.73397 21.5439 8.68698 21.5465 8.61811C21.5491 8.54988 21.5503 8.48229 21.5503 8.41664C21.5503 8.14759 21.5111 7.89269 21.4325 7.65196C21.354 7.41123 21.2361 7.19947 21.0784 7.01666C20.9213 6.83386 20.7255 6.68968 20.4924 6.58283C20.2587 6.47663 19.9876 6.4232 19.6779 6.4232C19.363 6.4232 19.0688 6.4792 18.7951 6.59056C18.5208 6.70191 18.2722 6.8609 18.0495 7.06623C17.826 7.27156 17.6335 7.51744 17.4712 7.80387C17.309 8.0903 17.1795 8.40891 17.083 8.75843H21.5349V8.75907Z" fill="white"/>
<path d="M26.6539 13.7571C26.2431 13.7571 25.8574 13.6798 25.4968 13.5247C25.1362 13.3702 24.8207 13.1482 24.5496 12.8592C24.2779 12.5702 24.0635 12.22 23.9064 11.8093C23.7493 11.3987 23.6707 10.9398 23.6707 10.4325C23.6707 9.94078 23.7203 9.47026 23.8188 9.02163C23.9173 8.57299 24.0583 8.15718 24.2412 7.7742C24.4241 7.39122 24.643 7.04493 24.8993 6.73597C25.1556 6.42637 25.4395 6.16311 25.7518 5.9449C26.0641 5.7267 26.4009 5.55935 26.764 5.44284C27.1265 5.32634 27.5058 5.26777 27.9018 5.26777C28.1961 5.26777 28.4761 5.30832 28.7427 5.38942C29.0093 5.47052 29.2501 5.58316 29.4658 5.72799C29.6815 5.87281 29.8663 6.04725 30.0215 6.25258C30.176 6.45791 30.2894 6.68255 30.3602 6.92585H30.4819L31.4941 2.15564H32.8257L30.3905 13.6129H29.1271L29.3628 12.4949H29.2411C28.9417 12.8856 28.5663 13.1932 28.1149 13.4192C27.6635 13.6438 27.1761 13.7571 26.6539 13.7571ZM27.0724 12.5779C27.4987 12.5779 27.8928 12.4781 28.2559 12.2773C28.6185 12.0771 28.9346 11.8029 29.2031 11.456C29.4723 11.1084 29.6828 10.7003 29.8348 10.2311C29.9867 9.76184 30.0634 9.25592 30.0634 8.71331C30.0634 8.36316 30.0151 8.04905 29.9185 7.7697C29.8219 7.49099 29.6847 7.25348 29.5077 7.05845C29.33 6.86342 29.1143 6.71215 28.8606 6.60595C28.6069 6.4991 28.3203 6.44632 28.0003 6.44632C27.5792 6.44632 27.1883 6.5403 26.8284 6.7276C26.4678 6.91555 26.1562 7.17624 25.8922 7.51094C25.6282 7.84565 25.4202 8.24537 25.2682 8.70881C25.1163 9.17225 25.0396 9.68139 25.0396 10.2343C25.0396 10.5793 25.0892 10.896 25.1884 11.185C25.2876 11.474 25.4253 11.7212 25.6031 11.9265C25.7808 12.1318 25.9939 12.2915 26.2425 12.406C26.491 12.5206 26.7679 12.5779 27.0724 12.5779Z" fill="white"/>
<path d="M44.7707 5.43579H41.8004L38.5603 9.44583H38.4006L36.6872 5.43579H33.6827L36.2583 11.2603L30.6982 17.8444H33.6286L37.1971 13.6149H37.438L39.3658 17.8444H42.3142L39.463 11.5519L44.7707 5.43579Z" fill="white"/>
</g>
<defs>
<clipPath id="clip0_2558_757">
<rect width="35.6" height="20" fill="white" transform="translate(12)"/>
</clipPath>
</defs>
</svg>
