<svg width="120" height="40" viewBox="0 0 120 40" fill="none" xmlns="http://www.w3.org/2000/svg">
<g clip-path="url(#clip0_24_1440)">
<path d="M69.9813 6.56025L71.362 0H30.8118L24.1611 31.5409H58.0657L56.1988 40H88.6761L95.8389 6.56025H69.9813Z" fill="#8C90AD"/>
<path d="M37.9812 27.5142C37.062 27.5142 36.1934 27.3648 35.3766 27.0649C34.5598 26.7662 33.8468 26.3247 33.2388 25.7415C32.6307 25.1583 32.1511 24.4413 31.7984 23.5891C31.4458 22.7369 31.2695 21.7585 31.2695 20.6527C31.2695 19.1413 31.4808 17.7639 31.9047 16.5216C32.3287 15.2793 32.9185 14.2147 33.6744 13.3265C34.4302 12.4395 35.3364 11.7521 36.3943 11.2654C37.4509 10.7788 38.6086 10.5355 39.8649 10.5355C40.7128 10.5355 41.5166 10.6823 42.2789 10.9771C43.0399 11.2719 43.7063 11.6993 44.278 12.2631C44.8497 12.8257 45.3048 13.5183 45.6419 14.3396C45.9789 15.1609 46.1475 16.1045 46.1475 17.1691C46.1475 17.3314 46.1423 17.5219 46.1319 17.7394C46.1215 17.9583 46.106 18.181 46.0852 18.4088C46.0645 18.6367 46.0438 18.8607 46.0243 19.0783C46.0036 19.2958 45.9789 19.4812 45.9478 19.6331H34.0426C34.0322 19.776 34.0244 19.9125 34.0192 20.0438C34.014 20.1764 34.0115 20.3128 34.0115 20.4544C34.0115 21.2963 34.1346 22.0134 34.3796 22.6068C34.6247 23.2003 34.9436 23.6843 35.3377 24.0602C35.7305 24.4361 36.1726 24.7065 36.6627 24.8738C37.1527 25.0412 37.648 25.1249 38.1484 25.1249C39.2413 25.1249 40.1203 24.9369 40.7841 24.5623C41.4479 24.1877 41.9535 23.6805 42.3009 23.0407H45.1051C44.9314 23.6702 44.6449 24.2585 44.2469 24.8056C43.8489 25.3527 43.3459 25.8277 42.7378 26.2281C42.1298 26.6285 41.4245 26.9439 40.6233 27.1717C39.8221 27.3996 38.9405 27.5142 37.9812 27.5142ZM43.3588 17.518C43.3692 17.4678 43.377 17.3738 43.3822 17.2361C43.3873 17.0996 43.3899 16.9645 43.3899 16.8332C43.3899 16.295 43.3109 15.7853 43.1527 15.3038C42.9945 14.8223 42.7573 14.3988 42.4396 14.0332C42.1233 13.6676 41.7292 13.3792 41.2599 13.1655C40.7893 12.9531 40.2435 12.8463 39.6199 12.8463C38.9859 12.8463 38.3934 12.9583 37.8424 13.181C37.2902 13.4037 36.7897 13.7217 36.3412 14.1323C35.8913 14.543 35.5037 15.0347 35.177 15.6076C34.8503 16.1805 34.5897 16.8177 34.3952 17.5167H43.3588V17.518Z" fill="white"/>
<path d="M53.6655 27.5142C52.8384 27.5142 52.0618 27.3597 51.3358 27.0494C50.6098 26.7405 49.9746 26.2963 49.4288 25.7183C48.8817 25.1403 48.45 24.44 48.1336 23.6187C47.8173 22.7974 47.6591 21.8795 47.6591 20.8651C47.6591 19.8816 47.7589 18.9405 47.9573 18.0433C48.1557 17.146 48.4396 16.3144 48.8078 15.5484C49.176 14.7824 49.6168 14.0899 50.1327 13.4719C50.6487 12.8527 51.2205 12.3262 51.8492 11.8898C52.478 11.4534 53.156 11.1187 53.8872 10.8857C54.6171 10.6527 55.3807 10.5355 56.1781 10.5355C56.7705 10.5355 57.3345 10.6166 57.8712 10.7788C58.4079 10.941 58.8928 11.1663 59.3271 11.456C59.7614 11.7456 60.1335 12.0945 60.446 12.5052C60.7571 12.9158 60.9853 13.3651 61.1279 13.8517H61.3729L63.4109 4.31128H66.092L61.1888 27.2258H58.6452L59.1197 24.9897H58.8747C58.2718 25.7711 57.516 26.3865 56.6072 26.8383C55.6984 27.2876 54.717 27.5142 53.6655 27.5142ZM54.5082 25.1558C55.3665 25.1558 56.1599 24.9562 56.8911 24.5546C57.621 24.1542 58.2576 23.6058 58.7982 22.9119C59.3401 22.2168 59.764 21.4006 60.07 20.4622C60.3759 19.5237 60.5302 18.5118 60.5302 17.4266C60.5302 16.7263 60.433 16.0981 60.2385 15.5394C60.0441 14.982 59.7679 14.507 59.4114 14.1169C59.0536 13.7268 58.6193 13.4243 58.1085 13.2119C57.5977 12.9982 57.0207 12.8926 56.3764 12.8926C55.5285 12.8926 54.7416 13.0806 54.0169 13.4552C53.2909 13.8311 52.6634 14.3525 52.1319 15.0219C51.6003 15.6913 51.1816 16.4907 50.8756 17.4176C50.5696 18.3445 50.4154 19.3628 50.4154 20.4686C50.4154 21.1586 50.5152 21.792 50.7148 22.37C50.9145 22.948 51.1919 23.4423 51.5497 23.853C51.9076 24.2636 52.3367 24.5829 52.8371 24.8121C53.3375 25.0412 53.895 25.1558 54.5082 25.1558Z" fill="white"/>
<path d="M90.1423 10.8716H84.1618L77.6381 18.8917H77.3166L73.8668 10.8716H67.8176L73.0033 22.5207L61.8085 35.6888H67.7087L74.8936 27.2297H75.3784L79.26 35.6888H85.1964L79.4557 23.1038L90.1423 10.8716Z" fill="white"/>
</g>
<defs>
<clipPath id="clip0_24_1440">
<rect width="71.6778" height="40" fill="white" transform="translate(24.1611)"/>
</clipPath>
</defs>
</svg>
