<svg width="156" height="52" viewBox="0 0 156 52" fill="none" xmlns="http://www.w3.org/2000/svg">
<rect x="0.5" y="0.5" width="155" height="51" rx="3.5" fill="white" stroke="#6B74A9"/>
<path d="M56.648 32.108C56.372 32.12 56.156 32.048 56 31.892C55.844 31.736 55.766 31.538 55.766 31.298C55.766 31.118 55.826 30.956 55.946 30.812C56.054 30.668 56.216 30.59 56.432 30.578L56.99 30.542C57.566 30.494 58.004 30.302 58.304 29.966C58.604 29.618 58.754 29.138 58.754 28.526V20.12C58.754 19.808 58.832 19.574 58.988 19.418C59.144 19.262 59.372 19.184 59.672 19.184C59.972 19.184 60.2 19.262 60.356 19.418C60.524 19.574 60.608 19.808 60.608 20.12V28.526C60.608 29.246 60.476 29.864 60.212 30.38C59.96 30.884 59.588 31.28 59.096 31.568C58.604 31.856 57.992 32.024 57.26 32.072L56.648 32.108ZM66.168 32.162C65.556 32.162 65.004 32.042 64.512 31.802C64.032 31.562 63.654 31.238 63.378 30.83C63.102 30.422 62.964 29.96 62.964 29.444C62.964 28.796 63.126 28.286 63.45 27.914C63.786 27.53 64.332 27.26 65.088 27.104C65.856 26.936 66.888 26.852 68.184 26.852H69.03V27.968H68.202C67.338 27.968 66.654 28.01 66.15 28.094C65.646 28.178 65.286 28.322 65.07 28.526C64.866 28.718 64.764 28.988 64.764 29.336C64.764 29.792 64.92 30.164 65.232 30.452C65.544 30.728 65.976 30.866 66.528 30.866C66.972 30.866 67.362 30.764 67.698 30.56C68.034 30.344 68.298 30.056 68.49 29.696C68.694 29.336 68.796 28.922 68.796 28.454V26.384C68.796 25.7 68.652 25.208 68.364 24.908C68.076 24.608 67.602 24.458 66.942 24.458C66.558 24.458 66.156 24.506 65.736 24.602C65.328 24.698 64.902 24.86 64.458 25.088C64.254 25.184 64.08 25.214 63.936 25.178C63.792 25.142 63.678 25.064 63.594 24.944C63.51 24.812 63.462 24.674 63.45 24.53C63.45 24.374 63.486 24.224 63.558 24.08C63.642 23.936 63.78 23.828 63.972 23.756C64.5 23.504 65.022 23.324 65.538 23.216C66.054 23.108 66.54 23.054 66.996 23.054C67.8 23.054 68.46 23.18 68.976 23.432C69.504 23.684 69.894 24.068 70.146 24.584C70.398 25.1 70.524 25.766 70.524 26.582V31.208C70.524 31.496 70.452 31.724 70.308 31.892C70.164 32.048 69.954 32.126 69.678 32.126C69.414 32.126 69.204 32.048 69.048 31.892C68.892 31.724 68.814 31.496 68.814 31.208V30.038H68.976C68.88 30.482 68.7 30.866 68.436 31.19C68.184 31.502 67.866 31.742 67.482 31.91C67.098 32.078 66.66 32.162 66.168 32.162ZM76.3421 32.126C76.0901 32.126 75.8681 32.06 75.6761 31.928C75.4961 31.796 75.3461 31.592 75.2261 31.316L72.2201 24.332C72.1241 24.116 72.0881 23.912 72.1121 23.72C72.1361 23.528 72.2261 23.378 72.3821 23.27C72.5381 23.15 72.7481 23.09 73.0121 23.09C73.2401 23.09 73.4201 23.144 73.5521 23.252C73.6841 23.36 73.8041 23.546 73.9121 23.81L76.6301 30.506H76.1261L78.8981 23.81C79.0061 23.546 79.1261 23.36 79.2581 23.252C79.4021 23.144 79.6001 23.09 79.8521 23.09C80.0681 23.09 80.2361 23.15 80.3561 23.27C80.4881 23.378 80.5661 23.528 80.5901 23.72C80.6261 23.9 80.5961 24.098 80.5001 24.314L77.4581 31.316C77.3501 31.592 77.2001 31.796 77.0081 31.928C76.8161 32.06 76.5941 32.126 76.3421 32.126ZM84.9239 32.162C84.3119 32.162 83.7599 32.042 83.2679 31.802C82.7879 31.562 82.4099 31.238 82.1339 30.83C81.8579 30.422 81.7199 29.96 81.7199 29.444C81.7199 28.796 81.8819 28.286 82.2059 27.914C82.5419 27.53 83.0879 27.26 83.8439 27.104C84.6119 26.936 85.6439 26.852 86.9399 26.852H87.7859V27.968H86.9579C86.0939 27.968 85.4099 28.01 84.9059 28.094C84.4019 28.178 84.0419 28.322 83.8259 28.526C83.6219 28.718 83.5199 28.988 83.5199 29.336C83.5199 29.792 83.6759 30.164 83.9879 30.452C84.2999 30.728 84.7319 30.866 85.2839 30.866C85.7279 30.866 86.1179 30.764 86.4539 30.56C86.7899 30.344 87.0539 30.056 87.2459 29.696C87.4499 29.336 87.5519 28.922 87.5519 28.454V26.384C87.5519 25.7 87.4079 25.208 87.1199 24.908C86.8319 24.608 86.3579 24.458 85.6979 24.458C85.3139 24.458 84.9119 24.506 84.4919 24.602C84.0839 24.698 83.6579 24.86 83.2139 25.088C83.0099 25.184 82.8359 25.214 82.6919 25.178C82.5479 25.142 82.4339 25.064 82.3499 24.944C82.2659 24.812 82.2179 24.674 82.2059 24.53C82.2059 24.374 82.2419 24.224 82.3139 24.08C82.3979 23.936 82.5359 23.828 82.7279 23.756C83.2559 23.504 83.7779 23.324 84.2939 23.216C84.8099 23.108 85.2959 23.054 85.7519 23.054C86.5559 23.054 87.2159 23.18 87.7319 23.432C88.2599 23.684 88.6499 24.068 88.9019 24.584C89.1539 25.1 89.2799 25.766 89.2799 26.582V31.208C89.2799 31.496 89.2079 31.724 89.0639 31.892C88.9199 32.048 88.7099 32.126 88.4339 32.126C88.1699 32.126 87.9599 32.048 87.8039 31.892C87.6479 31.724 87.5699 31.496 87.5699 31.208V30.038H87.7319C87.6359 30.482 87.4559 30.866 87.1919 31.19C86.9399 31.502 86.6219 31.742 86.2379 31.91C85.8539 32.078 85.4159 32.162 84.9239 32.162ZM96.2119 32.162C95.6599 32.162 95.1199 32.12 94.5919 32.036C94.0639 31.952 93.5659 31.826 93.0979 31.658C92.6299 31.478 92.2099 31.262 91.8379 31.01C91.6579 30.878 91.5319 30.728 91.4599 30.56C91.3999 30.392 91.3819 30.23 91.4059 30.074C91.4419 29.906 91.5139 29.762 91.6219 29.642C91.7299 29.522 91.8619 29.45 92.0179 29.426C92.1739 29.39 92.3479 29.438 92.5399 29.57C93.0799 29.918 93.6499 30.176 94.2499 30.344C94.8499 30.5 95.5039 30.578 96.2119 30.578C97.2319 30.578 97.9819 30.398 98.4619 30.038C98.9539 29.666 99.1999 29.186 99.1999 28.598C99.1999 28.118 99.0259 27.74 98.6779 27.464C98.3299 27.176 97.7479 26.948 96.9319 26.78L95.0059 26.384C93.8659 26.144 93.0139 25.748 92.4499 25.196C91.8979 24.644 91.6219 23.9 91.6219 22.964C91.6219 22.4 91.7359 21.884 91.9639 21.416C92.2039 20.948 92.5339 20.546 92.9539 20.21C93.3739 19.862 93.8779 19.598 94.4659 19.418C95.0539 19.238 95.6959 19.148 96.3919 19.148C97.1359 19.148 97.8319 19.244 98.4799 19.436C99.1399 19.628 99.7279 19.922 100.244 20.318C100.4 20.426 100.502 20.564 100.55 20.732C100.61 20.888 100.622 21.044 100.586 21.2C100.562 21.356 100.496 21.488 100.388 21.596C100.28 21.704 100.142 21.77 99.9739 21.794C99.8059 21.806 99.6199 21.746 99.4159 21.614C98.9479 21.302 98.4679 21.08 97.9759 20.948C97.4959 20.804 96.9619 20.732 96.3739 20.732C95.7859 20.732 95.2699 20.822 94.8259 21.002C94.3939 21.182 94.0579 21.434 93.8179 21.758C93.5899 22.082 93.4759 22.466 93.4759 22.91C93.4759 23.414 93.6379 23.816 93.9619 24.116C94.2859 24.416 94.8259 24.644 95.5819 24.8L97.4899 25.196C98.6899 25.448 99.5839 25.838 100.172 26.366C100.76 26.894 101.054 27.596 101.054 28.472C101.054 29.036 100.94 29.546 100.712 30.002C100.484 30.446 100.16 30.83 99.7399 31.154C99.3199 31.478 98.8099 31.73 98.2099 31.91C97.6219 32.078 96.9559 32.162 96.2119 32.162ZM106.851 32.162C105.951 32.162 105.171 31.976 104.511 31.604C103.863 31.22 103.359 30.686 102.999 30.002C102.639 29.306 102.459 28.49 102.459 27.554C102.459 26.858 102.561 26.234 102.765 25.682C102.969 25.118 103.257 24.644 103.629 24.26C104.013 23.876 104.475 23.582 105.015 23.378C105.567 23.162 106.179 23.054 106.851 23.054C107.271 23.054 107.709 23.12 108.165 23.252C108.633 23.372 109.065 23.576 109.461 23.864C109.617 23.96 109.713 24.08 109.749 24.224C109.797 24.356 109.803 24.494 109.767 24.638C109.743 24.782 109.677 24.908 109.569 25.016C109.473 25.112 109.353 25.172 109.209 25.196C109.065 25.208 108.909 25.166 108.741 25.07C108.453 24.866 108.159 24.722 107.859 24.638C107.559 24.542 107.271 24.494 106.995 24.494C106.563 24.494 106.179 24.566 105.843 24.71C105.519 24.842 105.243 25.04 105.015 25.304C104.787 25.556 104.613 25.874 104.493 26.258C104.385 26.642 104.331 27.08 104.331 27.572C104.331 28.556 104.559 29.33 105.015 29.894C105.483 30.446 106.143 30.722 106.995 30.722C107.271 30.722 107.559 30.68 107.859 30.596C108.159 30.512 108.453 30.368 108.741 30.164C108.909 30.068 109.065 30.032 109.209 30.056C109.353 30.08 109.467 30.146 109.551 30.254C109.647 30.35 109.707 30.47 109.731 30.614C109.767 30.746 109.761 30.884 109.713 31.028C109.665 31.172 109.563 31.292 109.407 31.388C109.023 31.664 108.603 31.862 108.147 31.982C107.703 32.102 107.271 32.162 106.851 32.162ZM112.301 32.126C112.001 32.126 111.773 32.048 111.617 31.892C111.461 31.724 111.383 31.496 111.383 31.208V24.008C111.383 23.708 111.461 23.48 111.617 23.324C111.773 23.168 111.989 23.09 112.265 23.09C112.553 23.09 112.769 23.168 112.913 23.324C113.069 23.48 113.147 23.708 113.147 24.008V25.322H112.967C113.159 24.602 113.513 24.056 114.029 23.684C114.545 23.312 115.205 23.096 116.009 23.036C116.225 23.024 116.393 23.078 116.513 23.198C116.645 23.318 116.717 23.504 116.729 23.756C116.753 24.008 116.699 24.212 116.567 24.368C116.435 24.512 116.231 24.596 115.955 24.62L115.613 24.656C114.833 24.728 114.239 24.974 113.831 25.394C113.423 25.814 113.219 26.39 113.219 27.122V31.208C113.219 31.496 113.141 31.724 112.985 31.892C112.841 32.048 112.613 32.126 112.301 32.126ZM118.998 32.108C118.71 32.108 118.488 32.024 118.332 31.856C118.176 31.676 118.098 31.43 118.098 31.118V24.098C118.098 23.786 118.176 23.546 118.332 23.378C118.488 23.21 118.71 23.126 118.998 23.126C119.286 23.126 119.508 23.21 119.664 23.378C119.832 23.546 119.916 23.786 119.916 24.098V31.118C119.916 31.43 119.838 31.676 119.682 31.856C119.526 32.024 119.298 32.108 118.998 32.108ZM118.998 21.254C118.638 21.254 118.356 21.164 118.152 20.984C117.96 20.804 117.864 20.552 117.864 20.228C117.864 19.892 117.96 19.64 118.152 19.472C118.356 19.292 118.638 19.202 118.998 19.202C119.358 19.202 119.634 19.292 119.826 19.472C120.03 19.64 120.132 19.892 120.132 20.228C120.132 20.552 120.03 20.804 119.826 20.984C119.634 21.164 119.358 21.254 118.998 21.254ZM123.375 35.366C123.087 35.366 122.865 35.288 122.709 35.132C122.553 34.976 122.475 34.748 122.475 34.448V24.008C122.475 23.708 122.553 23.48 122.709 23.324C122.865 23.168 123.081 23.09 123.357 23.09C123.645 23.09 123.867 23.168 124.023 23.324C124.179 23.48 124.257 23.708 124.257 24.008V25.574L124.059 25.196C124.251 24.548 124.629 24.032 125.193 23.648C125.757 23.252 126.423 23.054 127.191 23.054C127.971 23.054 128.649 23.24 129.225 23.612C129.813 23.984 130.263 24.506 130.575 25.178C130.899 25.85 131.061 26.66 131.061 27.608C131.061 28.532 130.899 29.342 130.575 30.038C130.263 30.722 129.819 31.25 129.243 31.622C128.667 31.982 127.983 32.162 127.191 32.162C126.435 32.162 125.775 31.97 125.211 31.586C124.647 31.202 124.269 30.692 124.077 30.056H124.293V34.448C124.293 34.748 124.209 34.976 124.041 35.132C123.885 35.288 123.663 35.366 123.375 35.366ZM126.741 30.758C127.245 30.758 127.683 30.638 128.055 30.398C128.427 30.158 128.715 29.804 128.919 29.336C129.123 28.868 129.225 28.292 129.225 27.608C129.225 26.576 128.997 25.796 128.541 25.268C128.097 24.74 127.497 24.476 126.741 24.476C126.249 24.476 125.811 24.596 125.427 24.836C125.055 25.064 124.767 25.412 124.563 25.88C124.359 26.348 124.257 26.924 124.257 27.608C124.257 28.628 124.485 29.408 124.941 29.948C125.397 30.488 125.997 30.758 126.741 30.758ZM136.766 32.162C136.046 32.162 135.44 32.036 134.948 31.784C134.456 31.532 134.09 31.16 133.85 30.668C133.61 30.176 133.49 29.576 133.49 28.868V24.62H132.41C132.17 24.62 131.984 24.56 131.852 24.44C131.72 24.308 131.654 24.134 131.654 23.918C131.654 23.69 131.72 23.516 131.852 23.396C131.984 23.276 132.17 23.216 132.41 23.216H133.49V21.362C133.49 21.062 133.568 20.834 133.724 20.678C133.892 20.522 134.12 20.444 134.408 20.444C134.696 20.444 134.918 20.522 135.074 20.678C135.23 20.834 135.308 21.062 135.308 21.362V23.216H137.414C137.654 23.216 137.84 23.276 137.972 23.396C138.104 23.516 138.17 23.69 138.17 23.918C138.17 24.134 138.104 24.308 137.972 24.44C137.84 24.56 137.654 24.62 137.414 24.62H135.308V28.724C135.308 29.36 135.44 29.84 135.704 30.164C135.98 30.488 136.424 30.65 137.036 30.65C137.252 30.65 137.438 30.632 137.594 30.596C137.762 30.548 137.9 30.518 138.008 30.506C138.14 30.506 138.248 30.554 138.332 30.65C138.416 30.734 138.458 30.902 138.458 31.154C138.458 31.334 138.422 31.502 138.35 31.658C138.29 31.814 138.176 31.916 138.008 31.964C137.864 32.012 137.666 32.054 137.414 32.09C137.174 32.138 136.958 32.162 136.766 32.162Z" fill="#535668"/>
<path d="M12 12H40V40H12V12Z" fill="#F7DF1E"/>
<path d="M19.3622 35.3988L21.5049 34.1021C21.9183 34.835 22.2944 35.4551 23.1964 35.4551C24.061 35.4551 24.6062 35.1169 24.6062 33.8014V24.8547H27.2375V33.8386C27.2375 36.5639 25.6399 37.8044 23.3092 37.8044C21.2042 37.8044 19.9824 36.7143 19.3621 35.3986M28.6667 35.1168L30.8091 33.8764C31.3732 34.7975 32.1062 35.4741 33.4029 35.4741C34.4933 35.4741 35.1885 34.9289 35.1885 34.1771C35.1885 33.275 34.4743 32.9554 33.2714 32.4293L32.6137 32.1471C30.7153 31.3391 29.456 30.3241 29.456 28.1815C29.456 26.2079 30.9596 24.7042 33.3091 24.7042C34.9819 24.7042 36.1848 25.287 37.0493 26.8094L35.0005 28.1251C34.5493 27.317 34.0608 26.9975 33.309 26.9975C32.5383 26.9975 32.0496 27.4862 32.0496 28.1251C32.0496 28.9145 32.5383 29.2342 33.666 29.7229L34.3238 30.0048C36.5605 30.9634 37.8197 31.9407 37.8197 34.1396C37.8197 36.508 35.959 37.8047 33.4593 37.8047C31.0159 37.8047 29.4371 36.6394 28.6666 35.1169" fill="black"/>
</svg>
