<svg width="81" height="23" viewBox="0 0 81 23" fill="none" xmlns="http://www.w3.org/2000/svg">
<path d="M2.11 22C1.53 22 1.08 21.84 0.76 21.52C0.44 21.2 0.28 20.76 0.28 20.2V2.62C0.28 2.04 0.45 1.58 0.79 1.24C1.15 0.879999 1.62 0.699999 2.2 0.699999C2.8 0.699999 3.27 0.879999 3.61 1.24C3.97 1.58 4.15 2.04 4.15 2.62V18.82H12.58C13.78 18.82 14.38 19.35 14.38 20.41C14.38 21.47 13.78 22 12.58 22H2.11ZM25.198 22.27C23.138 22.27 21.348 21.83 19.828 20.95C18.328 20.07 17.168 18.81 16.348 17.17C15.528 15.53 15.118 13.61 15.118 11.41C15.118 9.21 15.518 7.3 16.318 5.68C17.138 4.04 18.308 2.78 19.828 1.9C21.348 1.02 23.138 0.579999 25.198 0.579999C27.258 0.579999 29.038 1.02 30.538 1.9C32.058 2.78 33.218 4.04 34.018 5.68C34.838 7.3 35.248 9.21 35.248 11.41C35.248 13.61 34.838 15.53 34.018 17.17C33.198 18.81 32.028 20.07 30.508 20.95C29.008 21.83 27.238 22.27 25.198 22.27ZM25.198 19.18C27.138 19.18 28.648 18.51 29.728 17.17C30.828 15.83 31.378 13.91 31.378 11.41C31.378 8.91 30.828 7 29.728 5.68C28.648 4.34 27.138 3.67 25.198 3.67C23.238 3.67 21.708 4.34 20.608 5.68C19.528 7 18.988 8.91 18.988 11.41C18.988 13.91 19.528 15.83 20.608 17.17C21.708 18.51 23.238 19.18 25.198 19.18ZM55.267 10.57C55.727 10.57 56.097 10.71 56.377 10.99C56.657 11.25 56.797 11.6 56.797 12.04V18.49C56.797 19.41 56.677 20.06 56.437 20.44C56.197 20.82 55.707 21.13 54.967 21.37C54.167 21.65 53.237 21.87 52.177 22.03C51.117 22.19 50.097 22.27 49.117 22.27C46.937 22.27 45.047 21.84 43.447 20.98C41.847 20.12 40.617 18.88 39.757 17.26C38.917 15.62 38.497 13.67 38.497 11.41C38.497 9.19 38.917 7.27 39.757 5.65C40.617 4.01 41.827 2.76 43.387 1.9C44.947 1.02 46.787 0.579999 48.907 0.579999C51.727 0.579999 54.037 1.34 55.837 2.86C56.077 3.08 56.247 3.3 56.347 3.52C56.467 3.74 56.527 4 56.527 4.3C56.527 4.74 56.407 5.11 56.167 5.41C55.927 5.71 55.637 5.86 55.297 5.86C55.077 5.86 54.877 5.83 54.697 5.77C54.517 5.69 54.307 5.57 54.067 5.41C53.187 4.79 52.367 4.36 51.607 4.12C50.847 3.86 49.987 3.73 49.027 3.73C46.847 3.73 45.197 4.38 44.077 5.68C42.977 6.96 42.427 8.87 42.427 11.41C42.427 16.61 44.707 19.21 49.267 19.21C50.627 19.21 51.987 19.02 53.347 18.64V13.33H49.957C49.477 13.33 49.097 13.21 48.817 12.97C48.557 12.73 48.427 12.39 48.427 11.95C48.427 11.51 48.557 11.17 48.817 10.93C49.097 10.69 49.477 10.57 49.957 10.57H55.267ZM70.5789 22.27C68.5189 22.27 66.7289 21.83 65.2089 20.95C63.7089 20.07 62.5489 18.81 61.7289 17.17C60.9089 15.53 60.4989 13.61 60.4989 11.41C60.4989 9.21 60.8989 7.3 61.6989 5.68C62.5189 4.04 63.6889 2.78 65.2089 1.9C66.7289 1.02 68.5189 0.579999 70.5789 0.579999C72.6389 0.579999 74.4189 1.02 75.9189 1.9C77.4389 2.78 78.5989 4.04 79.3989 5.68C80.2189 7.3 80.6289 9.21 80.6289 11.41C80.6289 13.61 80.2189 15.53 79.3989 17.17C78.5789 18.81 77.4089 20.07 75.8889 20.95C74.3889 21.83 72.6189 22.27 70.5789 22.27ZM70.5789 19.18C72.5189 19.18 74.0289 18.51 75.1089 17.17C76.2089 15.83 76.7589 13.91 76.7589 11.41C76.7589 8.91 76.2089 7 75.1089 5.68C74.0289 4.34 72.5189 3.67 70.5789 3.67C68.6189 3.67 67.0889 4.34 65.9889 5.68C64.9089 7 64.3689 8.91 64.3689 11.41C64.3689 13.91 64.9089 15.83 65.9889 17.17C67.0889 18.51 68.6189 19.18 70.5789 19.18Z" fill="#9AC4A5"/>
</svg>
