<svg width="156" height="52" viewBox="0 0 156 52" fill="none" xmlns="http://www.w3.org/2000/svg">
<rect x="0.5" y="0.5" width="155" height="51" rx="3.5" fill="white" stroke="#6B74A9"/>
<path d="M25.8814 12.0079C18.7904 12.0079 19.2332 15.0951 19.2332 15.0951L19.2411 18.2934H26.0079V19.2537H16.5534C16.5534 19.2537 12.0159 18.737 12.0159 25.9199C12.0159 33.1029 15.9763 32.8482 15.9763 32.8482H18.3399V29.515C18.3399 29.515 18.2125 25.539 22.2372 25.539H28.9486C28.9486 25.539 32.7193 25.6001 32.7193 21.8804V15.7301C32.7193 15.7301 33.292 12.0079 25.8814 12.0079ZM22.1502 14.1588C22.3101 14.1586 22.4685 14.1901 22.6162 14.2515C22.764 14.3129 22.8983 14.4029 23.0113 14.5164C23.1244 14.6299 23.2141 14.7647 23.2752 14.913C23.3363 15.0614 23.3677 15.2204 23.3676 15.3809C23.3677 15.5414 23.3363 15.7004 23.2752 15.8487C23.2141 15.9971 23.1244 16.1319 23.0113 16.2454C22.8983 16.3589 22.764 16.4489 22.6162 16.5103C22.4685 16.5716 22.3101 16.6032 22.1502 16.603C21.9903 16.6032 21.832 16.5716 21.6842 16.5103C21.5364 16.4489 21.4022 16.3589 21.2891 16.2454C21.176 16.1319 21.0864 15.9971 21.0252 15.8487C20.9641 15.7004 20.9327 15.5414 20.9329 15.3809C20.9327 15.2204 20.9641 15.0614 21.0252 14.913C21.0864 14.7647 21.176 14.6299 21.2891 14.5164C21.4022 14.4029 21.5364 14.3129 21.6842 14.2515C21.832 14.1901 21.9903 14.1586 22.1502 14.1588Z" fill="url(#paint0_linear_24_1452)"/>
<path d="M26.0828 39.904C33.1738 39.904 32.731 36.8169 32.731 36.8169L32.7232 33.6186H25.9562V32.6584H35.4107C35.4107 32.6584 39.9483 33.175 39.9483 25.992C39.9483 18.8091 35.9878 19.0638 35.9878 19.0638H33.6242V22.3969C33.6242 22.3969 33.7516 26.3729 29.7269 26.3729H23.0155C23.0155 26.3729 19.2448 26.3117 19.2448 30.0316V36.182C19.2448 36.182 18.6722 39.904 26.0827 39.904H26.0828ZM29.814 37.7534C29.6541 37.7536 29.4957 37.722 29.348 37.6607C29.2002 37.5993 29.066 37.5093 28.9529 37.3958C28.8398 37.2823 28.7502 37.1475 28.689 36.9992C28.6279 36.8508 28.5965 36.6918 28.5967 36.5313C28.5965 36.3708 28.6279 36.2118 28.689 36.0634C28.7501 35.9151 28.8398 35.7803 28.9529 35.6667C29.0659 35.5532 29.2002 35.4632 29.348 35.4018C29.4957 35.3404 29.6541 35.3089 29.814 35.3091C29.9739 35.3089 30.1323 35.3404 30.28 35.4018C30.4278 35.4632 30.5621 35.5532 30.6751 35.6667C30.7882 35.7802 30.8779 35.915 30.939 36.0633C31.0001 36.2117 31.0315 36.3707 31.0314 36.5312C31.0315 36.6917 31.0001 36.8507 30.939 36.999C30.8779 37.1474 30.7882 37.2822 30.6751 37.3957C30.5621 37.5092 30.4278 37.5992 30.28 37.6606C30.1323 37.7219 29.9739 37.7534 29.814 37.7533V37.7534Z" fill="url(#paint1_linear_24_1452)"/>
<path d="M58.394 32.09C58.118 32.09 57.896 32.006 57.728 31.838C57.56 31.67 57.476 31.442 57.476 31.154V20.21C57.476 19.934 57.554 19.718 57.71 19.562C57.878 19.394 58.106 19.31 58.394 19.31H62.732C64.076 19.31 65.12 19.64 65.864 20.3C66.608 20.96 66.98 21.896 66.98 23.108C66.98 24.308 66.608 25.244 65.864 25.916C65.12 26.588 64.076 26.924 62.732 26.924H59.33V31.154C59.33 31.442 59.246 31.67 59.078 31.838C58.922 32.006 58.694 32.09 58.394 32.09ZM62.534 25.43C64.31 25.43 65.198 24.656 65.198 23.108C65.198 21.572 64.31 20.804 62.534 20.804H59.33V25.43H62.534ZM75.2833 23.576C75.3553 23.396 75.4573 23.264 75.5893 23.18C75.7333 23.096 75.8833 23.054 76.0393 23.054C76.2673 23.054 76.4653 23.132 76.6333 23.288C76.8133 23.444 76.9033 23.63 76.9033 23.846C76.9033 23.966 76.8793 24.08 76.8313 24.188L71.8273 34.808C71.7553 34.976 71.6473 35.102 71.5033 35.186C71.3713 35.282 71.2273 35.33 71.0713 35.33C70.8553 35.33 70.6573 35.258 70.4773 35.114C70.3093 34.97 70.2253 34.79 70.2253 34.574C70.2253 34.478 70.2553 34.358 70.3153 34.214L71.5573 31.568L68.0833 24.188C68.0353 24.092 68.0113 23.984 68.0113 23.864C68.0113 23.636 68.1073 23.444 68.2993 23.288C68.4913 23.132 68.7073 23.054 68.9473 23.054C69.3073 23.054 69.5653 23.222 69.7213 23.558L72.5113 29.75L75.2833 23.576ZM82.9018 30.704C83.1658 30.728 83.3518 30.8 83.4598 30.92C83.5798 31.028 83.6398 31.184 83.6398 31.388C83.6398 31.628 83.5438 31.814 83.3518 31.946C83.1718 32.066 82.9018 32.114 82.5418 32.09L82.0558 32.054C81.0838 31.982 80.3578 31.688 79.8778 31.172C79.3978 30.644 79.1578 29.87 79.1578 28.85V24.62H78.0778C77.5498 24.62 77.2858 24.386 77.2858 23.918C77.2858 23.702 77.3518 23.534 77.4838 23.414C77.6278 23.282 77.8258 23.216 78.0778 23.216H79.1578V21.362C79.1578 21.086 79.2358 20.87 79.3918 20.714C79.5598 20.558 79.7818 20.48 80.0578 20.48C80.3338 20.48 80.5558 20.558 80.7238 20.714C80.8918 20.87 80.9758 21.086 80.9758 21.362V23.216H82.7578C83.0098 23.216 83.2018 23.282 83.3338 23.414C83.4778 23.534 83.5498 23.702 83.5498 23.918C83.5498 24.146 83.4778 24.32 83.3338 24.44C83.2018 24.56 83.0098 24.62 82.7578 24.62H80.9758V28.976C80.9758 29.54 81.0898 29.954 81.3178 30.218C81.5578 30.482 81.9178 30.632 82.3978 30.668L82.9018 30.704ZM89.6975 23C91.7855 23 92.8295 24.182 92.8295 26.546V31.226C92.8295 31.49 92.7455 31.7 92.5775 31.856C92.4095 32.012 92.1875 32.09 91.9115 32.09C91.6355 32.09 91.4135 32.012 91.2455 31.856C91.0895 31.7 91.0115 31.49 91.0115 31.226V26.564C91.0115 25.844 90.8615 25.316 90.5615 24.98C90.2735 24.644 89.8175 24.476 89.1935 24.476C88.4615 24.476 87.8735 24.704 87.4295 25.16C86.9855 25.616 86.7635 26.228 86.7635 26.996V31.226C86.7635 31.49 86.6795 31.7 86.5115 31.856C86.3555 32.012 86.1395 32.09 85.8635 32.09C85.5875 32.09 85.3655 32.012 85.1975 31.856C85.0295 31.7 84.9455 31.49 84.9455 31.226V20.084C84.9455 19.82 85.0295 19.61 85.1975 19.454C85.3775 19.298 85.6055 19.22 85.8815 19.22C86.1455 19.22 86.3555 19.298 86.5115 19.454C86.6795 19.598 86.7635 19.796 86.7635 20.048V24.548C87.0635 24.044 87.4655 23.66 87.9695 23.396C88.4735 23.132 89.0495 23 89.6975 23ZM99.1326 32.126C98.2686 32.126 97.5066 31.94 96.8466 31.568C96.1986 31.196 95.6946 30.668 95.3346 29.984C94.9866 29.288 94.8126 28.484 94.8126 27.572C94.8126 26.648 94.9866 25.844 95.3346 25.16C95.6946 24.464 96.1986 23.93 96.8466 23.558C97.5066 23.186 98.2686 23 99.1326 23C99.9966 23 100.753 23.186 101.401 23.558C102.061 23.93 102.565 24.464 102.913 25.16C103.273 25.844 103.453 26.648 103.453 27.572C103.453 28.484 103.273 29.288 102.913 29.984C102.565 30.668 102.061 31.196 101.401 31.568C100.753 31.94 99.9966 32.126 99.1326 32.126ZM99.1326 30.686C99.9366 30.686 100.549 30.422 100.969 29.894C101.401 29.366 101.617 28.592 101.617 27.572C101.617 26.564 101.401 25.796 100.969 25.268C100.537 24.728 99.9246 24.458 99.1326 24.458C98.3406 24.458 97.7286 24.728 97.2966 25.268C96.8646 25.796 96.6486 26.564 96.6486 27.572C96.6486 28.592 96.8586 29.366 97.2786 29.894C97.7106 30.422 98.3286 30.686 99.1326 30.686ZM110.211 23C112.311 23 113.361 24.182 113.361 26.546V31.226C113.361 31.502 113.277 31.718 113.109 31.874C112.953 32.018 112.731 32.09 112.443 32.09C112.167 32.09 111.945 32.012 111.777 31.856C111.621 31.7 111.543 31.49 111.543 31.226V26.636C111.543 25.892 111.393 25.346 111.093 24.998C110.805 24.65 110.349 24.476 109.725 24.476C108.993 24.476 108.405 24.704 107.961 25.16C107.517 25.616 107.295 26.228 107.295 26.996V31.226C107.295 31.49 107.211 31.7 107.043 31.856C106.887 32.012 106.671 32.09 106.395 32.09C106.119 32.09 105.897 32.012 105.729 31.856C105.561 31.7 105.477 31.49 105.477 31.226V23.9C105.477 23.648 105.561 23.444 105.729 23.288C105.909 23.12 106.131 23.036 106.395 23.036C106.659 23.036 106.869 23.114 107.025 23.27C107.181 23.426 107.259 23.63 107.259 23.882V24.62C107.547 24.092 107.949 23.69 108.465 23.414C108.981 23.138 109.563 23 110.211 23Z" fill="#535668"/>
<defs>
<linearGradient id="paint0_linear_24_1452" x1="14.7002" y1="14.517" x2="28.5962" y2="28.2207" gradientUnits="userSpaceOnUse">
<stop stop-color="#387EB8"/>
<stop offset="1" stop-color="#366994"/>
</linearGradient>
<linearGradient id="paint1_linear_24_1452" x1="23.1966" y1="23.3516" x2="38.1167" y2="37.401" gradientUnits="userSpaceOnUse">
<stop stop-color="#FFE052"/>
<stop offset="1" stop-color="#FFC331"/>
</linearGradient>
</defs>
</svg>
