<svg width="156" height="52" viewBox="0 0 156 52" fill="none" xmlns="http://www.w3.org/2000/svg">
<rect x="0.5" y="0.5" width="155" height="51" rx="3.5" fill="white" stroke="#6B74A9"/>
<path d="M61.706 32.162C61.154 32.162 60.614 32.12 60.086 32.036C59.558 31.952 59.06 31.826 58.592 31.658C58.124 31.478 57.704 31.262 57.332 31.01C57.152 30.878 57.026 30.728 56.954 30.56C56.894 30.392 56.876 30.23 56.9 30.074C56.936 29.906 57.008 29.762 57.116 29.642C57.224 29.522 57.356 29.45 57.512 29.426C57.668 29.39 57.842 29.438 58.034 29.57C58.574 29.918 59.144 30.176 59.744 30.344C60.344 30.5 60.998 30.578 61.706 30.578C62.726 30.578 63.476 30.398 63.956 30.038C64.448 29.666 64.694 29.186 64.694 28.598C64.694 28.118 64.52 27.74 64.172 27.464C63.824 27.176 63.242 26.948 62.426 26.78L60.5 26.384C59.36 26.144 58.508 25.748 57.944 25.196C57.392 24.644 57.116 23.9 57.116 22.964C57.116 22.4 57.23 21.884 57.458 21.416C57.698 20.948 58.028 20.546 58.448 20.21C58.868 19.862 59.372 19.598 59.96 19.418C60.548 19.238 61.19 19.148 61.886 19.148C62.63 19.148 63.326 19.244 63.974 19.436C64.634 19.628 65.222 19.922 65.738 20.318C65.894 20.426 65.996 20.564 66.044 20.732C66.104 20.888 66.116 21.044 66.08 21.2C66.056 21.356 65.99 21.488 65.882 21.596C65.774 21.704 65.636 21.77 65.468 21.794C65.3 21.806 65.114 21.746 64.91 21.614C64.442 21.302 63.962 21.08 63.47 20.948C62.99 20.804 62.456 20.732 61.868 20.732C61.28 20.732 60.764 20.822 60.32 21.002C59.888 21.182 59.552 21.434 59.312 21.758C59.084 22.082 58.97 22.466 58.97 22.91C58.97 23.414 59.132 23.816 59.456 24.116C59.78 24.416 60.32 24.644 61.076 24.8L62.984 25.196C64.184 25.448 65.078 25.838 65.666 26.366C66.254 26.894 66.548 27.596 66.548 28.472C66.548 29.036 66.434 29.546 66.206 30.002C65.978 30.446 65.654 30.83 65.234 31.154C64.814 31.478 64.304 31.73 63.704 31.91C63.116 32.078 62.45 32.162 61.706 32.162ZM78.7713 34.232C78.9153 34.448 78.9753 34.646 78.9513 34.826C78.9273 35.006 78.8493 35.156 78.7173 35.276C78.5973 35.408 78.4413 35.486 78.2493 35.51C78.0693 35.546 77.8833 35.528 77.6913 35.456C77.5113 35.384 77.3553 35.24 77.2233 35.024L76.0353 33.098C75.8553 32.798 75.6093 32.564 75.2973 32.396C74.9853 32.24 74.6073 32.162 74.1633 32.162L75.6393 31.568C76.2033 31.568 76.6473 31.67 76.9713 31.874C77.3073 32.066 77.6373 32.42 77.9613 32.936L78.7713 34.232ZM74.1813 32.162C72.9813 32.162 71.9313 31.898 71.0313 31.37C70.1433 30.83 69.4533 30.074 68.9613 29.102C68.4813 28.118 68.2413 26.966 68.2413 25.646C68.2413 24.65 68.3793 23.756 68.6553 22.964C68.9313 22.16 69.3273 21.476 69.8433 20.912C70.3593 20.336 70.9833 19.898 71.7153 19.598C72.4473 19.298 73.2693 19.148 74.1813 19.148C75.3933 19.148 76.4433 19.412 77.3313 19.94C78.2193 20.468 78.9033 21.218 79.3833 22.19C79.8753 23.162 80.1213 24.308 80.1213 25.628C80.1213 26.624 79.9833 27.524 79.7073 28.328C79.4313 29.132 79.0293 29.822 78.5013 30.398C77.9853 30.974 77.3613 31.412 76.6293 31.712C75.8973 32.012 75.0813 32.162 74.1813 32.162ZM74.1813 30.542C75.0213 30.542 75.7353 30.35 76.3233 29.966C76.9233 29.582 77.3793 29.024 77.6913 28.292C78.0153 27.56 78.1773 26.678 78.1773 25.646C78.1773 24.098 77.8293 22.898 77.1333 22.046C76.4373 21.194 75.4533 20.768 74.1813 20.768C73.3413 20.768 72.6213 20.96 72.0213 21.344C71.4333 21.716 70.9773 22.268 70.6533 23C70.3413 23.732 70.1853 24.614 70.1853 25.646C70.1853 27.182 70.5333 28.382 71.2293 29.246C71.9373 30.11 72.9213 30.542 74.1813 30.542ZM83.5843 32C83.2843 32 83.0503 31.916 82.8823 31.748C82.7143 31.58 82.6303 31.346 82.6303 31.046V20.192C82.6303 19.88 82.7083 19.646 82.8643 19.49C83.0323 19.322 83.2663 19.238 83.5663 19.238C83.8663 19.238 84.0943 19.322 84.2503 19.49C84.4183 19.646 84.5023 19.88 84.5023 20.192V30.398H90.0823C90.3463 30.398 90.5503 30.47 90.6943 30.614C90.8383 30.746 90.9103 30.938 90.9103 31.19C90.9103 31.442 90.8383 31.64 90.6943 31.784C90.5503 31.928 90.3463 32 90.0823 32H83.5843Z" fill="#535668"/>
<g clip-path="url(#clip0_24_1480)">
<path d="M26.1029 32.4416C25.0756 32.4416 24.4828 33.4498 24.4828 34.6944C24.4726 35.9592 25.0853 36.9278 26.0933 36.9278C27.1109 36.9278 27.7039 35.9692 27.7039 34.6653C27.7039 33.4498 27.1307 32.4416 26.1029 32.4416Z" fill="#3C7AC7"/>
<path d="M36.1515 18.7098C36.1498 18.5814 36.1091 18.4546 36.0209 18.3543L30.6221 12.1878C30.621 12.1861 30.6189 12.1855 30.6178 12.1839C30.5856 12.148 30.5487 12.1183 30.509 12.0922C30.4972 12.0846 30.4848 12.0777 30.4725 12.0708C30.4381 12.0519 30.4018 12.0367 30.3642 12.0254C30.3546 12.0225 30.3449 12.0183 30.3347 12.0157C30.2937 12.0055 30.2516 12.0002 30.2093 12H16.9412C16.3358 12 15.8431 12.4927 15.8431 13.0981V38.902C15.8431 39.5076 16.3358 40 16.9412 40H35.0588C35.6641 40 36.1569 39.5076 36.1569 38.902V18.7713C36.1568 18.7507 36.1536 18.7305 36.1515 18.7098ZM19.4922 38.1135C18.731 38.1135 17.9802 37.9157 17.6049 37.7079L17.911 36.4632C18.3158 36.6707 18.9387 36.8782 19.5806 36.8782C20.2726 36.8782 20.6379 36.5914 20.6379 36.1566C20.6379 35.7413 20.3223 35.5046 19.5218 35.2183C18.4153 34.8328 17.6937 34.2197 17.6937 33.2516C17.6937 32.1153 18.6427 31.2456 20.2136 31.2456C20.9647 31.2456 21.518 31.4038 21.913 31.5818L21.5769 32.797C21.3103 32.6688 20.8359 32.4814 20.184 32.4814C19.5315 32.4814 19.2158 32.7774 19.2158 33.1235C19.2158 33.5484 19.591 33.7361 20.4506 34.0621C21.6262 34.4969 22.1802 35.1097 22.1802 36.0485C22.1799 37.1645 21.3199 38.1135 19.4922 38.1135ZM28.8893 39.1604C27.9409 38.8837 27.1505 38.5974 26.2611 38.2215C26.1131 38.1626 25.9549 38.1328 25.7967 38.1231C24.295 38.0247 22.892 36.9176 22.892 34.7435C22.892 32.7477 24.1566 31.2456 26.1425 31.2456C28.1783 31.2456 29.2946 32.7871 29.2946 34.6052C29.2946 36.1171 28.5933 37.1843 27.7134 37.5792V37.6191C28.2276 37.7677 28.8008 37.8862 29.3241 37.9942L28.8893 39.1604ZM34.4433 38.0146H30.2833V31.3548H31.7952V36.7496H34.4433V38.0146ZM16.9412 30.6439V13.0981H29.6602V18.7161C29.6602 19.0192 29.9058 19.2651 30.2093 19.2651H35.0588L35.0593 30.6439H16.9412Z" fill="#3C7AC7"/>
<path d="M28.9847 20.7015C29.0088 20.635 29.026 20.5669 29.026 20.4949C29.026 19.6111 27.1162 19.1343 25.3189 19.1343C23.5233 19.1343 21.6141 19.6111 21.6141 20.4949C21.6141 20.5669 21.6308 20.6353 21.6552 20.702L21.6457 20.7191C21.5635 20.8681 21.5229 21.0185 21.5229 21.1665V22.2601C21.5229 22.4284 21.5759 22.5901 21.6698 22.7429L21.6575 22.7638C21.568 22.9192 21.523 23.0765 21.523 23.2319V24.3253C21.523 24.4883 21.5729 24.6448 21.6618 24.7933L21.6575 24.8002C21.568 24.9553 21.523 25.1129 21.523 25.2679V26.3614C21.523 27.3335 23.1904 28.0945 25.3189 28.0945C27.4497 28.0945 29.1172 27.3335 29.1172 26.3614V25.2679C29.1172 25.1126 29.0721 24.9547 28.9815 24.7999L28.9778 24.7939C29.0659 24.6451 29.1172 24.4886 29.1172 24.3253V23.2319C29.1172 23.0763 29.0721 22.9184 28.9815 22.7633L28.9697 22.7432C29.0636 22.5901 29.1172 22.4287 29.1172 22.2598V21.1662C29.1172 21.0182 29.0759 20.8675 28.9944 20.7184L28.9847 20.7015ZM28.7102 26.3614C28.7102 26.9892 27.3184 27.6878 25.3189 27.6878C23.3214 27.6878 21.9292 26.9892 21.9292 26.3614V25.3329C22.5526 25.9039 23.8352 26.2681 25.3189 26.2681C26.8047 26.2681 28.0872 25.9036 28.7102 25.3324V26.3614ZM28.7102 24.3252C28.7102 24.9525 27.3184 25.6516 25.3189 25.6516C23.3214 25.6516 21.9292 24.9525 21.9292 24.3252V23.2966C22.5526 23.8673 23.8352 24.2319 25.3189 24.2319C26.8047 24.2319 28.0872 23.8673 28.7102 23.2961V24.3252ZM28.7102 22.2598C28.7102 22.8871 27.3184 23.5862 25.3189 23.5862C23.3214 23.5862 21.9292 22.8873 21.9292 22.2598V21.3498C22.5385 21.8661 23.9511 22.1338 25.3189 22.1338C26.6886 22.1338 28.1006 21.8661 28.7102 21.3498V22.2598Z" fill="#3C7AC7"/>
</g>
<defs>
<clipPath id="clip0_24_1480">
<rect width="28" height="28" fill="white" transform="translate(12 12)"/>
</clipPath>
</defs>
</svg>
