<svg width="60" height="20" viewBox="0 0 60 20" fill="none" xmlns="http://www.w3.org/2000/svg">
<g clip-path="url(#clip0_2613_267)">
<path d="M11.4647 4.77177L7.33176 2.38588L3.2 4.77177V2.38588L7.33235 0L11.4653 2.38588V4.77177H11.4647Z" fill="#A435F0"/>
<path d="M3.2 6.77535H5.3647V12.0348C5.3647 13.3936 6.37941 14.0559 7.33235 14.0559C8.29353 14.0559 9.30059 13.3759 9.30059 12.0165V6.77535H11.4653V12.1601C11.4653 13.4118 11.0718 14.3777 10.2847 15.0401C9.49706 15.7018 8.51353 16.0242 7.31411 16.0242C6.11588 16.0242 5.13176 15.7024 4.36294 15.0401C3.59353 14.3783 3.2 13.4483 3.2 12.2136V6.77535ZM30.18 13.3118C29.5247 13.8954 28.7782 14.1812 27.9271 14.1812C26.3741 14.1812 25.3329 13.2965 25.2153 11.9265H32.2094C32.2094 11.9265 32.2565 11.4842 32.2565 11.0689C32.2565 9.78064 31.8447 8.70712 31.0035 7.83065C30.1812 6.95417 29.1082 6.52476 27.8018 6.52476C26.4247 6.52476 25.2971 6.95417 24.4023 7.83065C23.5259 8.70712 23.0788 9.85182 23.0788 11.2836V11.3542C23.0788 12.7677 23.5259 13.8948 24.4023 14.7359C25.2788 15.5765 26.4418 16.0059 27.8553 16.0059C29.4988 16.0059 30.8065 15.3577 31.7876 14.2401L30.18 13.3118ZM26.0659 8.92182C26.5482 8.54594 27.1394 8.34947 27.8012 8.34947C28.4271 8.34947 28.9459 8.54594 29.3935 8.94006C29.8206 9.29888 30.0512 9.73947 30.0712 10.2459H25.2706C25.34 9.72241 25.6047 9.28123 26.0665 8.92241L26.0659 8.92182ZM51.9706 17.2212C51.0924 19.2948 50.1735 20.0001 48.7647 20.0001H47.7882V18.0812H48.5776C49.0624 18.0812 49.5129 17.8989 49.9424 16.9083L50.3718 15.9165L46.6682 6.77535H48.8688L51.4988 13.3589L54.2006 6.77535H56.4006L51.9712 17.2212H51.9706ZM19.8924 3.323V7.59182C19.1829 6.95653 18.0794 6.57829 17.0124 6.57829C15.7418 6.57829 14.6688 7.02535 13.7924 7.93712C12.9335 8.83182 12.5041 9.94065 12.5041 11.2824C12.5041 12.6248 12.9335 13.7336 13.7924 14.6459C14.6688 15.5406 15.7424 15.9883 17.0124 15.9883C18.4771 15.9883 19.4029 15.4124 19.8924 14.9612V15.7912H22.0394V3.32359H19.8924V3.323ZM19.2482 13.2512C18.7294 13.7701 18.0676 14.0389 17.2982 14.0389C16.5288 14.0389 15.9029 13.7701 15.3841 13.2512C14.8841 12.7324 14.6329 12.0706 14.6329 11.2836C14.6329 10.4959 14.8835 9.83418 15.3841 9.31535C15.9029 8.79653 16.5288 8.52829 17.2982 8.52829C18.0676 8.52829 18.7294 8.79653 19.2482 9.31535C19.7847 9.83418 20.0541 10.4959 20.0541 11.2836C20.0541 12.0706 19.7847 12.7324 19.2482 13.2512ZM43.3306 6.59653C41.7 6.59653 40.8524 7.273 40.2718 7.92476C40.0394 7.48182 39.3853 6.59653 37.8571 6.59653C36.5653 6.59653 35.8041 7.24947 35.4241 7.71417V6.77653H33.2959V15.7924H35.4241V10.6042C35.4241 9.3877 36.1759 8.51123 37.1771 8.51123C38.1976 8.51123 38.7876 9.28065 38.7876 10.5148V15.7918H40.9165V10.6036C40.9165 9.36947 41.6494 8.51065 42.7047 8.51065C43.7247 8.51065 44.3147 9.28006 44.3147 10.5136V15.7912H46.4618V10.2101C46.4618 7.85947 45.1982 6.59712 43.3306 6.59712V6.59653Z" fill="black"/>
</g>
<defs>
<clipPath id="clip0_2613_267">
<rect width="53.5294" height="20" fill="white" transform="translate(3.2)"/>
</clipPath>
</defs>
</svg>
