<svg width="108" height="40" viewBox="0 0 108 40" fill="none" xmlns="http://www.w3.org/2000/svg">
<path d="M17.0833 9.54353L8.76194 4.77177L0.442947 9.54353V4.77177L8.76312 0L17.0845 4.77177V9.54353H17.0833Z" fill="#8C90AD"/>
<path d="M0.442947 13.5506H4.80142V24.0694C4.80142 26.7871 6.84445 28.1118 8.76312 28.1118C10.6984 28.1118 12.726 26.7518 12.726 24.0329V13.5506H17.0845V24.32C17.0845 26.8235 16.2921 28.7553 14.7075 30.08C13.1216 31.4035 11.1413 32.0482 8.72641 32.0482C6.31385 32.0482 4.33241 31.4047 2.78444 30.08C1.23529 28.7565 0.442947 26.8965 0.442947 24.4271V13.5506ZM54.7651 26.6235C53.4457 27.7906 51.9428 28.3624 50.229 28.3624C47.1022 28.3624 45.0059 26.5929 44.769 23.8529H58.8512C58.8512 23.8529 58.9459 22.9682 58.9459 22.1376C58.9459 19.5612 58.1169 17.4141 56.4232 15.6612C54.7675 13.9082 52.6072 13.0494 49.9767 13.0494C47.2041 13.0494 44.9337 13.9082 43.1323 15.6612C41.3675 17.4141 40.4674 19.7035 40.4674 22.5671V22.7082C40.4674 25.5353 41.3675 27.7894 43.1323 29.4718C44.897 31.1529 47.2385 32.0118 50.0845 32.0118C53.3936 32.0118 56.0264 30.7153 58.002 28.48L54.7651 26.6235ZM46.4816 17.8435C47.4528 17.0918 48.6431 16.6988 49.9755 16.6988C51.2357 16.6988 52.2803 17.0918 53.1816 17.88C54.0415 18.5976 54.5057 19.4788 54.546 20.4918H44.8804C45.0201 19.4447 45.5531 18.5624 46.4828 17.8447L46.4816 17.8435ZM98.6388 34.4424C96.8705 38.5894 95.0205 40 92.184 40H90.2179V36.1624H91.8073C92.7833 36.1624 93.6905 35.7976 94.5551 33.8165L95.4197 31.8329L87.9629 13.5506H92.3936L97.6889 26.7176L103.129 13.5506H107.558L98.64 34.4424H98.6388ZM34.0517 6.64588V15.1835C32.6234 13.9129 30.4015 13.1565 28.2531 13.1565C25.6948 13.1565 23.5345 14.0506 21.7698 15.8741C20.0407 17.6635 19.1761 19.8812 19.1761 22.5647C19.1761 25.2494 20.0407 27.4671 21.7698 29.2918C23.5345 31.0812 25.696 31.9765 28.2531 31.9765C31.2021 31.9765 33.0663 30.8247 34.0517 29.9224V31.5824H38.3747V6.64706H34.0517V6.64588ZM32.7548 26.5024C31.7102 27.54 30.3778 28.0776 28.8287 28.0776C27.2795 28.0776 26.0193 27.54 24.9747 26.5024C23.968 25.4647 23.4623 24.1412 23.4623 22.5671C23.4623 20.9918 23.9668 19.6682 24.9747 18.6306C26.0193 17.5929 27.2795 17.0565 28.8287 17.0565C30.3778 17.0565 31.7102 17.5929 32.7548 18.6306C33.835 19.6682 34.3774 20.9918 34.3774 22.5671C34.3774 24.1412 33.835 25.4647 32.7548 26.5024ZM81.2428 13.1929C77.9597 13.1929 76.2531 14.5459 75.0841 15.8494C74.6163 14.9635 73.2992 13.1929 70.2223 13.1929C67.6214 13.1929 66.0888 14.4988 65.3237 15.4282V13.5529H61.0387V31.5847H65.3237V21.2082C65.3237 18.7753 66.8373 17.0224 68.8531 17.0224C70.908 17.0224 72.0959 18.5612 72.0959 21.0294V31.5835H76.3821V21.2071C76.3821 18.7388 77.8579 17.0212 79.9826 17.0212C82.0363 17.0212 83.2242 18.56 83.2242 21.0271V31.5824H87.5472V20.42C87.5472 15.7188 85.0032 13.1941 81.2428 13.1941V13.1929Z" fill="#8C90AD"/>
</svg>
